<?xml version="1.0" standalone="no"?>
<!DOCTYPE svg PUBLIC "-//W3C//DTD SVG 20010904//EN"
 "http://www.w3.org/TR/2001/REC-SVG-20010904/DTD/svg10.dtd">
<svg version="1.0" xmlns="http://www.w3.org/2000/svg"
 width="1024.000000pt" height="1024.000000pt" viewBox="0 0 1024.000000 1024.000000"
 preserveAspectRatio="xMidYMid meet">

<g transform="translate(0.000000,1024.000000) scale(0.100000,-0.100000)"
fill="#000000" stroke="none">
<path d="M4423 8808 c-54 -39 -80 -94 -157 -328 -119 -361 -207 -677 -231
-830 -10 -62 -14 -67 -126 -194 -474 -534 -792 -1151 -913 -1774 -38 -194 -49
-333 -43 -526 7 -207 31 -315 98 -449 134 -262 519 -574 969 -784 385 -180
886 -325 1065 -309 162 15 590 193 785 326 304 209 313 387 50 970 -151 334
-182 422 -200 551 -18 131 21 258 95 315 96 73 199 88 530 79 229 -6 258 -5
349 14 228 47 410 180 568 415 69 104 153 272 167 336 23 102 10 189 -38 244
-31 36 -90 54 -426 136 -572 139 -608 148 -634 167 -14 11 -45 48 -69 84 -216
325 -328 435 -557 545 -143 69 -266 102 -436 116 l-136 12 -22 73 c-49 156
-185 397 -326 578 -67 86 -183 204 -231 236 -39 26 -92 24 -131 -3z m310 -820
c57 -145 74 -340 41 -460 -17 -59 -52 -108 -77 -108 -30 0 -83 47 -106 94 -24
48 -24 51 -12 139 19 132 99 397 121 397 4 0 19 -28 33 -62z m1046 -666 c68
-50 88 -129 52 -201 -57 -110 -211 -109 -261 2 -24 52 -25 89 -4 134 18 36 65
77 99 86 33 9 88 -1 114 -21z m-1783 -921 c119 -54 140 -225 38 -309 l-34 -29
-3 -151 -2 -152 98 0 99 0 -4 58 -3 57 80 0 80 0 -3 -57 -4 -58 116 0 116 0 0
158 0 159 -26 13 c-40 22 -74 88 -74 145 0 129 115 217 227 174 63 -23 112
-100 113 -173 0 -52 -36 -124 -71 -145 l-28 -16 -3 -156 -3 -157 50 -4 c94 -8
159 -58 191 -145 7 -22 13 -81 14 -135 l0 -98 120 0 c138 0 143 -3 138 -93
l-3 -52 -127 -3 -128 -3 0 -169 0 -170 108 0 c105 0 109 1 122 25 33 62 133
99 204 75 80 -26 126 -88 126 -170 0 -57 -10 -81 -49 -123 -37 -41 -73 -57
-126 -57 -59 0 -108 23 -144 67 l-28 34 -105 2 -106 2 -4 -90 c-5 -99 -24
-149 -75 -197 -33 -31 -91 -58 -128 -58 l-25 0 0 -113 0 -114 39 -31 c48 -38
71 -86 71 -146 0 -109 -75 -186 -182 -186 -22 0 -55 7 -74 16 -114 54 -132
222 -34 307 l40 34 0 116 0 117 -90 0 -89 0 -3 -62 -3 -63 -63 -3 c-81 -4 -92
5 -92 74 l0 54 -90 0 -89 0 -3 -117 -3 -118 -65 0 -65 0 -3 117 -3 116 -88 4
c-77 3 -94 7 -136 33 -33 21 -57 47 -79 85 l-31 55 -3 328 -3 327 -67 0 c-65
0 -68 -1 -89 -35 -27 -41 -89 -75 -138 -75 -133 0 -215 162 -140 277 55 83
200 84 269 2 23 -27 30 -29 95 -29 l71 0 0 110 c0 77 5 122 16 148 33 79 111
131 197 132 l47 0 0 153 -1 152 -31 20 c-18 11 -42 40 -55 64 -82 157 73 325
233 252z"/>
<path d="M3887 6272 c-34 -37 -15 -82 33 -82 49 0 68 51 32 83 -24 22 -45 21
-65 -1z"/>
<path d="M4594 6265 c-15 -23 -15 -27 0 -50 27 -41 79 -32 91 16 14 54 -60 82
-91 34z"/>
<path d="M3855 5600 c-66 -9 -80 -16 -94 -46 -8 -17 -11 -157 -11 -460 0 -464
1 -476 50 -519 21 -19 38 -20 468 -23 301 -2 455 1 472 8 60 25 60 25 60 513
0 259 -4 456 -10 471 -5 14 -21 33 -37 43 -25 17 -60 18 -438 19 -225 1 -432
-2 -460 -6z m662 -256 c45 -33 52 -71 52 -274 1 -203 -8 -242 -59 -267 -32
-16 -413 -18 -458 -2 -59 20 -62 35 -62 278 0 216 0 220 23 247 32 37 75 43
294 41 167 -2 184 -4 210 -23z"/>
<path d="M3250 5321 c-15 -29 -12 -46 10 -66 42 -38 98 12 70 64 -14 28 -65
29 -80 2z"/>
<path d="M5306 4847 c-20 -30 -10 -66 22 -74 34 -8 56 8 60 43 6 50 -55 74
-82 31z"/>
<path d="M4624 4015 c-15 -23 -15 -27 0 -50 27 -42 86 -26 86 23 0 55 -56 72
-86 27z"/>
<path d="M8030 2635 l0 -675 38 0 c20 0 80 -3 134 -6 l96 -7 5 304 c3 195 8
317 16 342 48 153 275 188 349 54 15 -28 17 -71 20 -364 l3 -333 140 0 140 0
-3 373 c-3 361 -4 374 -26 429 -31 76 -99 150 -170 185 -51 25 -67 28 -157 28
-115 -1 -181 -21 -258 -80 -25 -19 -47 -35 -49 -35 -2 0 -3 102 -3 227 l0 228
-137 3 -138 3 0 -676z"/>
<path d="M1350 2617 l0 -669 338 5 c376 5 393 7 541 77 114 55 222 161 275
272 53 111 69 197 63 348 -3 105 -9 138 -34 210 -66 192 -198 319 -403 391
-61 21 -85 23 -423 28 l-357 6 0 -668z m682 384 c165 -64 260 -251 229 -449
-16 -103 -49 -172 -115 -237 -84 -82 -134 -97 -334 -104 -90 -3 -166 -4 -168
-2 -2 2 -4 189 -4 414 l0 409 168 -4 c143 -4 175 -8 224 -27z"/>
<path d="M5431 3282 c-489 -2 -542 -4 -537 -18 3 -9 6 -67 6 -130 l0 -114 195
-2 196 -3 -1 -532 0 -533 150 0 150 0 0 535 0 535 198 0 197 0 -2 131 c-1 72
-3 132 -5 133 -2 0 -248 0 -547 -2z"/>
<path d="M3048 2955 c-239 -60 -378 -247 -378 -505 0 -163 41 -271 140 -370
99 -99 228 -150 382 -150 251 0 454 148 513 375 19 76 19 214 0 290 -42 160
-162 290 -320 346 -79 27 -255 35 -337 14z m261 -251 c96 -48 149 -157 138
-285 -10 -123 -76 -213 -178 -243 -66 -20 -82 -20 -148 0 -64 19 -121 68 -152
132 -33 68 -33 205 0 280 25 55 74 106 125 128 54 23 155 18 215 -12z"/>
<path d="M4175 2957 c-162 -42 -286 -167 -330 -333 -18 -70 -21 -222 -4 -290
33 -138 130 -262 248 -318 62 -29 73 -31 181 -31 106 0 119 2 168 28 29 15 71
44 94 65 l41 37 -6 -72 c-7 -90 -32 -148 -84 -194 -53 -48 -101 -63 -198 -63
-91 0 -157 19 -230 65 -26 17 -51 27 -55 22 -4 -4 -35 -45 -68 -90 l-62 -82
37 -30 c53 -44 139 -87 213 -107 97 -27 283 -25 375 3 184 57 304 180 335 343
6 31 10 255 10 541 l0 489 -130 0 -130 0 0 -40 0 -41 -37 30 c-66 53 -128 74
-228 77 -52 2 -111 -2 -140 -9z m246 -239 c94 -31 141 -102 147 -222 5 -95 -7
-148 -47 -203 -40 -55 -103 -83 -186 -83 -110 0 -189 58 -220 162 -41 140 8
283 117 337 49 24 134 28 189 9z"/>
<path d="M6233 2955 c-169 -46 -298 -175 -348 -350 -23 -77 -23 -219 -1 -304
36 -141 135 -263 258 -321 201 -94 483 -52 628 93 45 45 63 77 42 77 -4 0 -49
27 -100 60 l-93 60 -25 -29 c-14 -17 -51 -43 -82 -58 -47 -23 -70 -28 -132
-28 -118 1 -196 53 -231 157 l-18 53 362 5 362 5 -1 95 c-2 157 -46 274 -140
367 -113 114 -314 163 -481 118z m198 -209 c76 -13 158 -103 159 -173 l0 -23
-225 0 c-173 0 -225 3 -225 13 1 46 67 135 122 163 33 17 98 33 118 29 8 -2
31 -6 51 -9z"/>
<path d="M7336 2954 c-179 -43 -319 -184 -366 -370 -88 -343 148 -654 495
-654 194 1 354 82 428 219 l27 49 -67 32 c-38 18 -91 43 -120 56 l-51 23 -12
-28 c-51 -125 -251 -150 -356 -45 -134 133 -100 402 60 475 98 44 236 14 279
-62 12 -21 27 -39 34 -39 22 0 223 93 223 103 0 20 -62 106 -100 141 -110 99
-306 141 -474 100z"/>
</g>
</svg>
