<svg width="1017" height="972" viewBox="0 0 1017 972" fill="none" xmlns="http://www.w3.org/2000/svg">
<path d="M409.733 2.85587C402.533 8.05587 399.067 15.3892 388.8 46.5892C372.933 94.7225 361.2 136.856 358 157.256C356.667 165.523 356.133 166.189 341.2 183.123C278 254.323 235.6 336.589 219.467 419.656C214.4 445.523 212.933 464.056 213.733 489.789C214.667 517.389 217.867 531.789 226.8 549.656C244.667 584.589 296 626.189 356 654.189C407.333 678.189 474.133 697.522 498 695.389C519.6 693.389 576.667 669.656 602.667 651.923C643.2 624.056 644.4 600.322 609.333 522.589C589.2 478.056 585.067 466.323 582.667 449.123C580.267 431.656 585.467 414.723 595.333 407.123C608.133 397.389 621.867 395.389 666 396.589C696.533 397.389 700.4 397.256 712.533 394.723C742.933 388.456 767.2 370.723 788.267 339.389C797.467 325.523 808.667 303.123 810.533 294.589C813.6 280.989 811.867 269.389 805.467 262.056C801.333 257.256 793.467 254.856 748.667 243.923C672.4 225.389 667.6 224.189 664.133 221.656C662.267 220.189 658.133 215.256 654.933 210.456C626.133 167.123 611.2 152.456 580.667 137.789C561.6 128.589 545.2 124.189 522.533 122.323L504.4 120.723L501.467 110.989C494.933 90.1892 476.8 58.0559 458 33.9225C449.067 22.4559 433.6 6.72253 427.2 2.45587C422 -1.0108 414.933 -0.744132 409.733 2.85587ZM451.067 112.189C458.667 131.523 460.933 157.523 456.533 173.523C454.267 181.389 449.6 187.923 446.267 187.923C442.267 187.923 435.2 181.656 432.133 175.389C428.933 168.989 428.933 168.589 430.533 156.856C433.067 139.256 443.733 103.923 446.667 103.923C447.2 103.923 449.2 107.656 451.067 112.189ZM590.533 200.989C599.6 207.656 602.267 218.189 597.467 227.789C589.867 242.456 569.333 242.323 562.667 227.523C559.467 220.589 559.333 215.656 562.133 209.656C564.533 204.856 570.8 199.389 575.333 198.189C579.733 196.989 587.067 198.323 590.533 200.989ZM352.8 323.789C368.667 330.989 371.467 353.789 357.867 364.989L353.333 368.856L352.933 388.989L352.667 409.256H365.733H378.933L378.4 401.523L378 393.923H388.667H399.333L398.933 401.523L398.4 409.256H413.867H429.333V388.189V366.989L425.867 365.256C420.533 362.323 416 353.523 416 345.923C416 328.723 431.333 316.989 446.267 322.723C454.667 325.789 461.2 336.056 461.333 345.789C461.333 352.723 456.533 362.323 451.867 365.123L448.133 367.256L447.733 388.056L447.333 408.989L454 409.523C466.533 410.589 475.2 417.256 479.467 428.856C480.4 431.789 481.2 439.656 481.333 446.856V459.923H497.333C515.733 459.923 516.4 460.323 515.733 472.323L515.333 479.256L498.4 479.656L481.333 480.056V502.589V525.256H495.733C509.733 525.256 510.267 525.123 512 521.923C516.4 513.656 529.733 508.723 539.2 511.923C549.867 515.389 556 523.656 556 534.589C556 542.189 554.667 545.389 549.467 550.989C544.533 556.456 539.733 558.589 532.667 558.589C524.8 558.589 518.267 555.523 513.467 549.656L509.733 545.123L495.733 544.856L481.6 544.589L481.067 556.589C480.4 569.789 477.867 576.456 471.067 582.856C466.667 586.989 458.933 590.589 454 590.589H450.667V605.656V620.856L455.867 624.989C462.267 630.056 465.333 636.456 465.333 644.456C465.333 658.989 455.333 669.256 441.067 669.256C438.133 669.256 433.733 668.322 431.2 667.122C416 659.922 413.6 637.522 426.667 626.189L432 621.656V606.189V590.589H420H408.133L407.733 598.856L407.333 607.256L398.933 607.656C388.133 608.189 386.667 606.989 386.667 597.789V590.589H374.667H362.8L362.4 606.189L362 621.922H353.333H344.667L344.267 606.322L343.867 590.856L332.133 590.322C321.867 589.922 319.6 589.389 314 585.923C309.6 583.123 306.4 579.656 303.467 574.589L299.333 567.256L298.933 523.523L298.533 479.923H289.6C280.933 479.923 280.533 480.056 277.733 484.589C274.133 490.056 265.867 494.589 259.333 494.589C241.6 494.589 230.667 472.989 240.667 457.656C248 446.589 267.333 446.456 276.533 457.389C279.6 460.989 280.533 461.256 289.2 461.256H298.667V446.589C298.667 436.323 299.333 430.323 300.8 426.856C305.2 416.323 315.6 409.389 327.067 409.256H333.333V388.856L333.2 368.589L329.067 365.923C326.667 364.456 323.467 360.589 321.733 357.389C310.8 336.456 331.467 314.056 352.8 323.789Z" fill="#0E0E0E"/>
<path d="M338.267 340.989C333.733 345.922 336.267 351.922 342.667 351.922C349.2 351.922 351.733 345.122 346.933 340.856C343.733 337.922 340.933 338.056 338.267 340.989Z" fill="#0E0E0E"/>
<path d="M432.533 341.922C430.533 344.989 430.533 345.522 432.533 348.589C436.133 354.056 443.067 352.856 444.667 346.456C446.533 339.256 436.667 335.522 432.533 341.922Z" fill="#0E0E0E"/>
<path d="M334 430.589C325.2 431.789 323.333 432.723 321.467 436.723C320.4 438.989 320 457.656 320 498.056C320 559.923 320.133 561.523 326.667 567.256C329.467 569.789 331.733 569.923 389.067 570.323C429.2 570.589 449.733 570.189 452 569.256C460 565.923 460 565.923 460 500.856C460 466.323 459.467 440.056 458.667 438.056C458 436.189 455.867 433.656 453.733 432.323C450.4 430.056 445.733 429.923 395.333 429.789C365.333 429.656 337.733 430.056 334 430.589ZM422.267 464.723C428.267 469.123 429.2 474.189 429.2 501.256C429.333 528.323 428.133 533.523 421.333 536.856C417.067 538.989 366.267 539.256 360.267 537.123C352.4 534.456 352 532.456 352 500.056C352 471.256 352 470.723 355.067 467.123C359.333 462.189 365.067 461.389 394.267 461.656C416.533 461.923 418.8 462.189 422.267 464.723Z" fill="#0E0E0E"/>
<path d="M253.333 467.789C251.333 471.656 251.733 473.923 254.667 476.589C260.267 481.656 267.733 474.989 264 468.056C262.133 464.323 255.333 464.189 253.333 467.789Z" fill="#0E0E0E"/>
<path d="M527.467 530.989C524.8 534.989 526.133 539.789 530.4 540.856C534.933 541.923 537.867 539.789 538.4 535.123C539.2 528.456 531.067 525.256 527.467 530.989Z" fill="#0E0E0E"/>
<path d="M436.533 641.923C434.533 644.989 434.533 645.523 436.533 648.589C440.133 654.189 448 652.056 448 645.523C448 638.189 440.533 635.923 436.533 641.923Z" fill="#0E0E0E"/>
<path d="M890.667 825.922V915.922H895.734C898.4 915.922 906.4 916.322 913.6 916.722L926.4 917.656L927.067 877.122C927.467 851.122 928.134 834.856 929.2 831.522C935.6 811.122 965.867 806.456 975.734 824.322C977.734 828.056 978 833.789 978.4 872.856L978.8 917.256H997.467H1016.13L1015.73 867.522C1015.33 819.389 1015.2 817.656 1012.27 810.322C1008.13 800.189 999.067 790.322 989.6 785.656C982.8 782.322 980.667 781.922 968.667 781.922C953.334 782.056 944.534 784.722 934.267 792.589C930.934 795.122 928 797.256 927.734 797.256C927.467 797.256 927.334 783.656 927.334 766.989V736.589L909.067 736.189L890.667 735.789V825.922Z" fill="#0E0E0E"/>
<path d="M0 828.323V917.523L45.0667 916.856C95.2 916.189 97.4667 915.923 117.2 906.589C132.4 899.256 146.8 885.123 153.867 870.323C160.933 855.523 163.067 844.056 162.267 823.923C161.867 809.923 161.067 805.523 157.733 795.923C148.933 770.323 131.333 753.389 104 743.789C95.8667 740.989 92.6667 740.723 47.6 740.056L0 739.256V828.323ZM90.9333 777.123C112.933 785.656 125.6 810.589 121.467 836.989C119.333 850.723 114.933 859.923 106.133 868.589C94.9333 879.523 88.2667 881.523 61.6 882.456C49.6 882.856 39.4667 882.989 39.2 882.723C38.9333 882.456 38.6667 857.523 38.6667 827.523V772.989L61.0667 773.523C80.1333 774.056 84.4 774.589 90.9333 777.123Z" fill="#0E0E0E"/>
<path d="M544.133 739.656C478.933 739.923 471.867 740.189 472.533 742.056C472.933 743.256 473.333 750.989 473.333 759.389V774.589L499.333 774.856L525.467 775.256L525.333 846.189V917.256H545.333H565.333V845.923V774.589H591.733H618L617.733 757.123C617.6 747.523 617.333 739.523 617.067 739.389C616.8 739.389 584 739.389 544.133 739.656Z" fill="#0E0E0E"/>
<path d="M226.4 783.256C194.533 791.256 176 816.189 176 850.589C176 872.322 181.467 886.722 194.667 899.922C207.867 913.122 225.067 919.922 245.6 919.922C279.067 919.922 306.133 900.189 314 869.922C316.533 859.789 316.533 841.389 314 831.256C308.4 809.922 292.4 792.589 271.333 785.122C260.8 781.522 237.333 780.456 226.4 783.256ZM261.2 816.722C274 823.122 281.067 837.656 279.6 854.722C278.267 871.122 269.467 883.122 255.867 887.122C247.067 889.789 244.933 889.789 236.133 887.122C227.6 884.589 220 878.056 215.867 869.522C211.467 860.456 211.467 842.189 215.867 832.189C219.2 824.856 225.733 818.056 232.533 815.122C239.733 812.056 253.2 812.722 261.2 816.722Z" fill="#0E0E0E"/>
<path d="M376.667 782.989C355.067 788.589 338.533 805.256 332.667 827.389C330.267 836.722 329.867 856.989 332.133 866.056C336.533 884.456 349.467 900.989 365.2 908.456C373.467 912.322 374.933 912.589 389.333 912.589C403.467 912.589 405.2 912.322 411.733 908.856C415.6 906.856 421.2 902.989 424.267 900.189L429.733 895.256L428.933 904.856C428 916.856 424.667 924.589 417.733 930.722C410.667 937.122 404.267 939.122 391.333 939.122C379.2 939.122 370.4 936.589 360.667 930.456C357.2 928.189 353.867 926.856 353.333 927.522C352.8 928.056 348.667 933.522 344.267 939.522L336 950.456L340.933 954.456C348 960.322 359.467 966.056 369.333 968.722C382.267 972.322 407.067 972.056 419.333 968.322C443.867 960.722 459.867 944.322 464 922.589C464.8 918.456 465.333 888.589 465.333 850.456V785.256H448H430.667V790.589V796.056L425.733 792.056C416.933 784.989 408.667 782.189 395.333 781.789C388.4 781.522 380.533 782.056 376.667 782.989ZM409.467 814.856C422 818.989 428.267 828.456 429.067 844.456C429.733 857.122 428.133 864.189 422.8 871.522C417.467 878.856 409.067 882.589 398 882.589C383.333 882.589 372.8 874.856 368.667 860.989C363.2 842.322 369.733 823.256 384.267 816.056C390.8 812.856 402.133 812.322 409.467 814.856Z" fill="#0E0E0E"/>
<path d="M651.067 783.256C628.533 789.389 611.333 806.589 604.667 829.923C601.6 840.189 601.6 859.123 604.533 870.456C609.333 889.256 622.533 905.523 638.933 913.256C665.733 925.789 703.333 920.189 722.667 900.856C728.667 894.856 731.067 890.589 728.267 890.589C727.733 890.589 721.733 886.989 714.933 882.589L702.533 874.589L699.2 878.456C697.333 880.723 692.4 884.189 688.267 886.189C682 889.256 678.933 889.923 670.667 889.923C654.933 889.789 644.533 882.856 639.867 868.989L637.467 861.923L685.733 861.256L734 860.589L733.867 847.923C733.6 826.989 727.733 811.389 715.2 798.989C700.133 783.789 673.333 777.256 651.067 783.256ZM677.467 811.123C687.6 812.856 698.533 824.856 698.667 834.189V837.256H668.667C645.6 837.256 638.667 836.856 638.667 835.523C638.8 829.389 647.6 817.523 654.933 813.789C659.333 811.523 668 809.389 670.667 809.923C671.733 810.189 674.8 810.723 677.467 811.123Z" fill="#0E0E0E"/>
<path d="M798.133 783.389C774.267 789.122 755.6 807.922 749.333 832.722C737.6 878.456 769.067 919.922 815.333 919.922C841.2 919.789 862.533 908.989 872.4 890.722L876 884.189L867.067 879.922C862 877.522 854.933 874.189 851.067 872.456L844.267 869.389L842.667 873.122C835.867 889.789 809.2 893.122 795.2 879.122C777.333 861.389 781.867 825.522 803.2 815.789C816.267 809.922 834.667 813.922 840.4 824.056C842 826.856 844 829.256 844.933 829.256C847.867 829.256 874.667 816.856 874.667 815.522C874.667 812.856 866.4 801.389 861.333 796.722C846.667 783.522 820.533 777.922 798.133 783.389Z" fill="#0E0E0E"/>
</svg>
